<svg viewBox="0 0 58 58" fill="none" xmlns="http://www.w3.org/2000/svg">
<circle cx="29" cy="29" r="29" fill="white"/>
<path d="M47.5 32C48.8807 32 50 30.8807 50 29.5C50 28.1193 48.8807 27 47.5 27V32ZM12 29.5L10.1447 27.8243C9.65928 28.3618 9.43076 29.0834 9.51835 29.8023C9.60593 30.5213 10.001 31.1669 10.6013 31.5721L12 29.5ZM25.1289 14.9644L23.2737 13.2887L23.2737 13.2887L25.1289 14.9644ZM23.5 21.5C23.5 22.8807 24.6193 24 26 24C27.3807 24 28.5 22.8807 28.5 21.5H23.5ZM31.2203 42.4737L32.6189 40.4016L32.6189 40.4016L31.2203 42.4737ZM34.5 38.5C34.5 37.1193 33.3807 36 32 36C30.6193 36 29.5 37.1193 29.5 38.5H34.5ZM47.5 27H12V32H47.5V27ZM13.8553 31.1757L26.9842 16.6401L23.2737 13.2887L10.1447 27.8243L13.8553 31.1757ZM23.5 15.2995V21.5H28.5V15.2995H23.5ZM10.6013 31.5721L29.8216 44.5458L32.6189 40.4016L13.3987 27.4279L10.6013 31.5721ZM34.5 42.0593V38.5H29.5V42.0593H34.5ZM29.8216 44.5458C31.8141 45.8907 34.5 44.4631 34.5 42.0593H29.5C29.5 40.4567 31.2906 39.5049 32.6189 40.4016L29.8216 44.5458ZM26.9842 16.6401C25.7568 17.9991 23.5 17.1307 23.5 15.2995H28.5C28.5 12.5527 25.1149 11.2502 23.2737 13.2887L26.9842 16.6401Z" fill="currentColor"/>
</svg>
