<svg viewBox="0 0 67 64" fill="none" xmlns="http://www.w3.org/2000/svg">
<path fill-rule="evenodd" clip-rule="evenodd" d="M31.7762 3.27357C31.9625 2.90665 32.4876 2.90941 32.6701 3.27829L54.4011 47.2025C54.7684 47.945 55.6681 48.2492 56.4107 47.8818C57.1532 47.5144 57.4573 46.6147 57.09 45.8722L35.359 1.94798C34.0816 -0.634058 30.406 -0.653459 29.1014 1.91497L0.384073 58.4523C-0.798606 60.7807 0.89306 63.5373 3.50459 63.5373H64.7455C65.5739 63.5373 66.2455 62.8658 66.2455 62.0373C66.2455 61.2089 65.5739 60.5373 64.7455 60.5373H3.50459C3.13152 60.5373 2.88986 60.1435 3.0588 59.8109L31.7762 3.27357ZM32.7455 49.0373C37.1638 49.0373 40.7455 45.4556 40.7455 41.0373C40.7455 36.6191 37.1638 33.0373 32.7455 33.0373C28.3272 33.0373 24.7455 36.6191 24.7455 41.0373C24.7455 45.4556 28.3272 49.0373 32.7455 49.0373Z" fill="black"/>
</svg>
