<svg viewBox="0 0 59 59" fill="none" xmlns="http://www.w3.org/2000/svg">
<circle cx="29.5" cy="29.5" r="29.5" fill="currentColor"/>
<path d="M20 27.1136V20.971C20 20.1523 20.9299 19.6805 21.5906 20.164L33.8464 29.133C34.4068 29.5432 34.3888 30.3857 33.8114 30.7715L21.5556 38.9606C20.8911 39.4046 20 38.9283 20 38.1291V31.4687" stroke="white" stroke-width="3" stroke-linecap="round" stroke-linejoin="round"/>
<path d="M29 27.7273V21.9159C29 21.1078 29.9088 20.6334 30.5718 21.0955L42.7686 29.5963C43.3542 30.0045 43.3359 30.8771 42.7337 31.2604L30.5369 39.022C29.8711 39.4456 29 38.9674 29 38.1783V31.875" stroke="white" stroke-width="2" stroke-linecap="round" stroke-linejoin="round"/>
<path d="M21 36.9329V22.0671C21 21.231 21.9651 20.7641 22.6207 21.2831L32.0096 28.716C32.5154 29.1163 32.5154 29.8837 32.0096 30.284L22.6207 37.7169C21.9651 38.2359 21 37.769 21 36.9329Z" fill="currentColor"/>
</svg>
