<svg viewBox="0 0 59 59" fill="none" xmlns="http://www.w3.org/2000/svg">
<circle cx="29.5" cy="29.5" r="29.5" fill="currentColor"/>
<path d="M24 16C24 14.8954 23.1046 14 22 14C20.8954 14 20 14.8954 20 16V37.5C20 38.6046 20.8954 39.5 22 39.5C23.1046 39.5 24 38.6046 24 37.5V16Z" fill="white"/>
<path d="M39 16C39 14.8954 38.1046 14 37 14C35.8954 14 35 14.8954 35 16V42.5C35 43.6046 35.8954 44.5 37 44.5C38.1046 44.5 39 43.6046 39 42.5V16Z" fill="white"/>
<path d="M22 45C23.1046 45 24 44.1046 24 43C24 41.8954 23.1046 41 22 41C20.8954 41 20 41.8954 20 43C20 44.1046 20.8954 45 22 45Z" fill="white"/>
</svg>
