<svg viewBox="0 0 16 13" fill="none" xmlns="http://www.w3.org/2000/svg">
<path d="M8.02862 0.34113L5.46875 5.32034C5.40894 5.43668 5.2923 5.51535 5.15931 5.52905C5.02632 5.54275 4.89531 5.4896 4.81177 5.38803L2.56813 2.66046L0.951951 4.75621L0.324498 4.29854L2.2444 1.80893C2.31717 1.71457 2.43073 1.65826 2.552 1.65642C2.67327 1.65458 2.78859 1.70741 2.86435 1.79952L5.04134 4.44606L7.3271 0L8.02862 0.34113Z" fill="#FFC09D"/>
<path d="M16 1.8528L10.9196 8.91135L8.51087 5.98311L5.93209 11.6261L3.8535 8.93072L1.27645 12.4396L0 11.5528L3.82262 6.34805L5.58383 8.63188L8.12479 3.07164L10.8358 6.36742L14.7149 0.977938L16 1.8528Z" fill="#FFC09D"/>
<path d="M11.8684 12.7892L14.4283 7.80995L13.7268 7.46882L11.441 11.9149L9.26402 9.26834C9.18047 9.16677 9.04947 9.11362 8.91648 9.12732C8.78349 9.14102 8.66685 9.21969 8.60704 9.33603L7.3271 11.8256L8.02862 12.1668L9.03445 10.2103L11.2114 12.8569C11.295 12.9584 11.426 13.0116 11.559 12.9979C11.692 12.9842 11.8086 12.9055 11.8684 12.7892Z" fill="#FFC09D"/>
</svg>
