<svg viewBox="0 0 35 35" fill="none" xmlns="http://www.w3.org/2000/svg">
<path d="M16.5013 16.9416L1.05922 31.5013C0.479334 32.0481 0.46584 32.9658 1.0294 33.5294C1.57 34.07 2.44245 34.0828 2.99872 33.5584L18.4408 18.9987C19.0207 18.4519 19.0342 17.5342 18.4706 16.9706C17.93 16.43 17.0575 16.4172 16.5013 16.9416Z" stroke="black"/>
<path d="M34 12.5C34 10.2255 33.3255 8.00211 32.0619 6.11094C30.7983 4.21978 29.0022 2.74579 26.9009 1.87539C24.7995 1.00498 22.4872 0.777239 20.2565 1.22097C18.0257 1.6647 15.9766 2.75997 14.3683 4.36827C12.76 5.97658 11.6647 8.02568 11.221 10.2565C10.7772 12.4872 11.005 14.7995 11.8754 16.9009C12.7458 19.0022 14.2198 20.7983 16.1109 22.0619C18.0021 23.3255 20.2255 24 22.5 24" stroke="black" stroke-width="2"/>
<circle cx="22.5" cy="12.5" r="11.5" fill="currentColor"/>
</svg>
