<svg viewBox="0 0 22 20" fill="none" xmlns="http://www.w3.org/2000/svg">
<path d="M11.4737 0.963636L13.2153 6.11749C13.4212 6.727 13.9929 7.13729 14.6363 7.13729H20.1862C20.6753 7.13729 20.8735 7.76707 20.4725 8.04717L16.0509 11.1361C15.5045 11.5178 15.2755 12.2144 15.4889 12.8459L17.1936 17.8906C17.3481 18.3478 16.8292 18.7369 16.4335 18.4605L11.859 15.2648C11.3431 14.9043 10.6569 14.9043 10.141 15.2648L5.56646 18.4605C5.17082 18.7369 4.65192 18.3478 4.80643 17.8906L6.51109 12.8459C6.72449 12.2144 6.49553 11.5178 5.94907 11.1361L1.5275 8.04717C1.12655 7.76707 1.32475 7.13729 1.81384 7.13729H7.36368C8.00705 7.13729 8.57878 6.727 8.78474 6.11749L10.5263 0.963636C10.6795 0.510392 11.3205 0.510391 11.4737 0.963636Z" fill="currentColor" stroke="black"/>
</svg>
