<svg width="77" height="80" viewBox="0 0 77 80" fill="none" xmlns="http://www.w3.org/2000/svg">
<rect width="77" height="80" fill="#FFFCFA"/>
<rect x="32.5" y="29.5" width="3" height="4" fill="white" stroke="black"/>
<path d="M9 71.5C10.5 65.3333 16.2 53 27 53C28.5 53.1667 31.5 52.5 31.5 48.5V45C31.5 42.2386 29.2614 40 26.5 40H24.5V23H37.5" stroke="black"/>
<rect x="39.5" y="29.5" width="3" height="4" fill="white" stroke="#FF8540"/>
<path d="M65.5 72C64 65.7698 58.3 53.3093 47.5 53.3093C46 53.4777 43 52.8041 43 48.7629V45.1753C43 42.4138 45.2386 40.1753 48 40.1753H50V23H37" stroke="#FF8540"/>
<path d="M23.3565 21.9713L39.4134 4.70661L42.9613 8.00628L26.9043 25.271C25.9932 26.2507 24.4603 26.3063 23.4806 25.3951C22.5009 24.4839 22.4453 22.951 23.3565 21.9713Z" fill="#FFC09D" stroke="black"/>
<path d="M26.5 23.1338C26.5 23.6861 26.0523 24.1338 25.5 24.1338C24.9477 24.1338 24.5 23.6861 24.5 23.1338C24.5 22.5815 24.9477 22.1338 25.5 22.1338C26.0523 22.1338 26.5 22.5815 26.5 23.1338Z" fill="white" stroke="black"/>
</svg>
