<svg width="1512" height="884" viewBox="0 0 1512 884" fill="none" xmlns="http://www.w3.org/2000/svg">
<rect width="1512" height="884" fill="none"/>
<path d="M174.5 133.25C174.5 136.234 173.315 139.095 171.205 141.205C169.095 143.315 166.234 144.5 163.25 144.5C160.266 144.5 157.405 143.315 155.295 141.205C153.185 139.095 152 136.234 152 133.25C152 130.266 153.185 127.405 155.295 125.295C157.405 123.185 160.266 122 163.25 122C166.234 122 169.095 123.185 171.205 125.295C173.315 127.405 174.5 130.266 174.5 133.25V133.25ZM155.75 133.25C155.75 135.239 156.54 137.147 157.947 138.553C159.353 139.96 161.261 140.75 163.25 140.75C165.239 140.75 167.147 139.96 168.553 138.553C169.96 137.147 170.75 135.239 170.75 133.25C170.75 131.261 169.96 129.353 168.553 127.947C167.147 126.54 165.239 125.75 163.25 125.75C161.261 125.75 159.353 126.54 157.947 127.947C156.54 129.353 155.75 131.261 155.75 133.25V133.25Z" fill="#ffaa4e"/>
<path d="M185.75 144.5H187.625C189.444 144.5 191.201 145.161 192.569 146.36C193.937 147.559 194.823 149.214 195.061 151.017L206.724 145.835C207.295 145.581 207.92 145.473 208.543 145.522C209.166 145.571 209.767 145.774 210.291 146.115C210.816 146.455 211.246 146.921 211.545 147.47C211.843 148.019 212 148.634 212 149.259V177.241C211.999 177.866 211.843 178.48 211.545 179.029C211.247 179.577 210.816 180.043 210.292 180.383C209.769 180.723 209.168 180.927 208.546 180.976C207.923 181.026 207.298 180.919 206.727 180.665L195.061 175.483C194.823 177.286 193.937 178.941 192.569 180.14C191.201 181.339 189.444 182 187.625 182H159.5C157.511 182 155.603 181.21 154.197 179.803C152.79 178.397 152 176.489 152 174.5V152C152 150.011 152.79 148.103 154.197 146.697C155.603 145.29 157.511 144.5 159.5 144.5H185.75ZM208.25 177.237V149.262L195.125 155.094V171.406L208.25 177.241V177.237ZM155.75 152V174.5C155.75 175.495 156.145 176.448 156.848 177.152C157.552 177.855 158.505 178.25 159.5 178.25H187.625C188.62 178.25 189.573 177.855 190.277 177.152C190.98 176.448 191.375 175.495 191.375 174.5V152C191.375 151.005 190.98 150.052 190.277 149.348C189.573 148.645 188.62 148.25 187.625 148.25H159.5C158.505 148.25 157.552 148.645 156.848 149.348C156.145 150.052 155.75 151.005 155.75 152V152Z" fill="#ffaa4e"/>
<path d="M185.75 144.5C188.734 144.5 191.595 143.315 193.705 141.205C195.815 139.095 197 136.234 197 133.25C197 130.266 195.815 127.405 193.705 125.295C191.595 123.185 188.734 122 185.75 122C182.766 122 179.905 123.185 177.795 125.295C175.685 127.405 174.5 130.266 174.5 133.25C174.5 136.234 175.685 139.095 177.795 141.205C179.905 143.315 182.766 144.5 185.75 144.5V144.5ZM178.25 133.25C178.25 131.261 179.04 129.353 180.447 127.947C181.853 126.54 183.761 125.75 185.75 125.75C187.739 125.75 189.647 126.54 191.053 127.947C192.46 129.353 193.25 131.261 193.25 133.25C193.25 135.239 192.46 137.147 191.053 138.553C189.647 139.96 187.739 140.75 185.75 140.75C183.761 140.75 181.853 139.96 180.447 138.553C179.04 137.147 178.25 135.239 178.25 133.25V133.25Z" fill="#ffaa4e"/>
<path d="M687.5 384.25C687.5 387.234 686.315 390.095 684.205 392.205C682.095 394.315 679.234 395.5 676.25 395.5C673.266 395.5 670.405 394.315 668.295 392.205C666.185 390.095 665 387.234 665 384.25C665 381.266 666.185 378.405 668.295 376.295C670.405 374.185 673.266 373 676.25 373C679.234 373 682.095 374.185 684.205 376.295C686.315 378.405 687.5 381.266 687.5 384.25V384.25ZM668.75 384.25C668.75 386.239 669.54 388.147 670.947 389.553C672.353 390.96 674.261 391.75 676.25 391.75C678.239 391.75 680.147 390.96 681.553 389.553C682.96 388.147 683.75 386.239 683.75 384.25C683.75 382.261 682.96 380.353 681.553 378.947C680.147 377.54 678.239 376.75 676.25 376.75C674.261 376.75 672.353 377.54 670.947 378.947C669.54 380.353 668.75 382.261 668.75 384.25V384.25Z" fill="#ffaa4e"/>
<path d="M698.75 395.5H700.625C702.444 395.5 704.201 396.161 705.569 397.36C706.937 398.559 707.823 400.214 708.061 402.017L719.724 396.835C720.295 396.581 720.92 396.473 721.543 396.522C722.166 396.571 722.767 396.774 723.291 397.115C723.816 397.455 724.246 397.921 724.545 398.47C724.843 399.019 725 399.634 725 400.259V428.241C724.999 428.866 724.843 429.48 724.545 430.029C724.247 430.577 723.816 431.043 723.292 431.383C722.769 431.723 722.168 431.927 721.546 431.976C720.923 432.026 720.298 431.919 719.727 431.665L708.061 426.483C707.823 428.286 706.937 429.941 705.569 431.14C704.201 432.339 702.444 433 700.625 433H672.5C670.511 433 668.603 432.21 667.197 430.803C665.79 429.397 665 427.489 665 425.5V403C665 401.011 665.79 399.103 667.197 397.697C668.603 396.29 670.511 395.5 672.5 395.5H698.75ZM721.25 428.237V400.262L708.125 406.094V422.406L721.25 428.241V428.237ZM668.75 403V425.5C668.75 426.495 669.145 427.448 669.848 428.152C670.552 428.855 671.505 429.25 672.5 429.25H700.625C701.62 429.25 702.573 428.855 703.277 428.152C703.98 427.448 704.375 426.495 704.375 425.5V403C704.375 402.005 703.98 401.052 703.277 400.348C702.573 399.645 701.62 399.25 700.625 399.25H672.5C671.505 399.25 670.552 399.645 669.848 400.348C669.145 401.052 668.75 402.005 668.75 403V403Z" fill="#ffaa4e"/>
<path d="M698.75 395.5C701.734 395.5 704.595 394.315 706.705 392.205C708.815 390.095 710 387.234 710 384.25C710 381.266 708.815 378.405 706.705 376.295C704.595 374.185 701.734 373 698.75 373C695.766 373 692.905 374.185 690.795 376.295C688.685 378.405 687.5 381.266 687.5 384.25C687.5 387.234 688.685 390.095 690.795 392.205C692.905 394.315 695.766 395.5 698.75 395.5V395.5ZM691.25 384.25C691.25 382.261 692.04 380.353 693.447 378.947C694.853 377.54 696.761 376.75 698.75 376.75C700.739 376.75 702.647 377.54 704.053 378.947C705.46 380.353 706.25 382.261 706.25 384.25C706.25 386.239 705.46 388.147 704.053 389.553C702.647 390.96 700.739 391.75 698.75 391.75C696.761 391.75 694.853 390.96 693.447 389.553C692.04 388.147 691.25 386.239 691.25 384.25V384.25Z" fill="#ffaa4e"/>
<path d="M864.5 133.25C864.5 136.234 863.315 139.095 861.205 141.205C859.095 143.315 856.234 144.5 853.25 144.5C850.266 144.5 847.405 143.315 845.295 141.205C843.185 139.095 842 136.234 842 133.25C842 130.266 843.185 127.405 845.295 125.295C847.405 123.185 850.266 122 853.25 122C856.234 122 859.095 123.185 861.205 125.295C863.315 127.405 864.5 130.266 864.5 133.25V133.25ZM845.75 133.25C845.75 135.239 846.54 137.147 847.947 138.553C849.353 139.96 851.261 140.75 853.25 140.75C855.239 140.75 857.147 139.96 858.553 138.553C859.96 137.147 860.75 135.239 860.75 133.25C860.75 131.261 859.96 129.353 858.553 127.947C857.147 126.54 855.239 125.75 853.25 125.75C851.261 125.75 849.353 126.54 847.947 127.947C846.54 129.353 845.75 131.261 845.75 133.25V133.25Z" fill="#ffaa4e"/>
<path d="M875.75 144.5H877.625C879.444 144.5 881.201 145.161 882.569 146.36C883.937 147.559 884.823 149.214 885.061 151.017L896.724 145.835C897.295 145.581 897.92 145.473 898.543 145.522C899.166 145.571 899.767 145.774 900.291 146.115C900.816 146.455 901.246 146.921 901.545 147.47C901.843 148.019 902 148.634 902 149.259V177.241C901.999 177.866 901.843 178.48 901.545 179.029C901.247 179.577 900.816 180.043 900.292 180.383C899.769 180.723 899.168 180.927 898.546 180.976C897.923 181.026 897.298 180.919 896.727 180.665L885.061 175.483C884.823 177.286 883.937 178.941 882.569 180.14C881.201 181.339 879.444 182 877.625 182H849.5C847.511 182 845.603 181.21 844.197 179.803C842.79 178.397 842 176.489 842 174.5V152C842 150.011 842.79 148.103 844.197 146.697C845.603 145.29 847.511 144.5 849.5 144.5H875.75ZM898.25 177.237V149.262L885.125 155.094V171.406L898.25 177.241V177.237ZM845.75 152V174.5C845.75 175.495 846.145 176.448 846.848 177.152C847.552 177.855 848.505 178.25 849.5 178.25H877.625C878.62 178.25 879.573 177.855 880.277 177.152C880.98 176.448 881.375 175.495 881.375 174.5V152C881.375 151.005 880.98 150.052 880.277 149.348C879.573 148.645 878.62 148.25 877.625 148.25H849.5C848.505 148.25 847.552 148.645 846.848 149.348C846.145 150.052 845.75 151.005 845.75 152V152Z" fill="#ffaa4e"/>
<path d="M875.75 144.5C878.734 144.5 881.595 143.315 883.705 141.205C885.815 139.095 887 136.234 887 133.25C887 130.266 885.815 127.405 883.705 125.295C881.595 123.185 878.734 122 875.75 122C872.766 122 869.905 123.185 867.795 125.295C865.685 127.405 864.5 130.266 864.5 133.25C864.5 136.234 865.685 139.095 867.795 141.205C869.905 143.315 872.766 144.5 875.75 144.5V144.5ZM868.25 133.25C868.25 131.261 869.04 129.353 870.447 127.947C871.853 126.54 873.761 125.75 875.75 125.75C877.739 125.75 879.647 126.54 881.053 127.947C882.46 129.353 883.25 131.261 883.25 133.25C883.25 135.239 882.46 137.147 881.053 138.553C879.647 139.96 877.739 140.75 875.75 140.75C873.761 140.75 871.853 139.96 870.447 138.553C869.04 137.147 868.25 135.239 868.25 133.25V133.25Z" fill="#ffaa4e"/>
<path d="M280.5 516.25C280.5 519.234 279.315 522.095 277.205 524.205C275.095 526.315 272.234 527.5 269.25 527.5C266.266 527.5 263.405 526.315 261.295 524.205C259.185 522.095 258 519.234 258 516.25C258 513.266 259.185 510.405 261.295 508.295C263.405 506.185 266.266 505 269.25 505C272.234 505 275.095 506.185 277.205 508.295C279.315 510.405 280.5 513.266 280.5 516.25V516.25ZM261.75 516.25C261.75 518.239 262.54 520.147 263.947 521.553C265.353 522.96 267.261 523.75 269.25 523.75C271.239 523.75 273.147 522.96 274.553 521.553C275.96 520.147 276.75 518.239 276.75 516.25C276.75 514.261 275.96 512.353 274.553 510.947C273.147 509.54 271.239 508.75 269.25 508.75C267.261 508.75 265.353 509.54 263.947 510.947C262.54 512.353 261.75 514.261 261.75 516.25V516.25Z" fill="#ffaa4e"/>
<path d="M291.75 527.5H293.625C295.444 527.5 297.201 528.161 298.569 529.36C299.937 530.559 300.823 532.214 301.061 534.017L312.724 528.835C313.295 528.581 313.92 528.473 314.543 528.522C315.166 528.571 315.767 528.774 316.291 529.115C316.816 529.455 317.246 529.921 317.545 530.47C317.843 531.019 318 531.634 318 532.259V560.241C317.999 560.866 317.843 561.48 317.545 562.029C317.247 562.577 316.816 563.043 316.292 563.383C315.769 563.723 315.168 563.927 314.546 563.976C313.923 564.026 313.298 563.919 312.727 563.665L301.061 558.483C300.823 560.286 299.937 561.941 298.569 563.14C297.201 564.339 295.444 565 293.625 565H265.5C263.511 565 261.603 564.21 260.197 562.803C258.79 561.397 258 559.489 258 557.5V535C258 533.011 258.79 531.103 260.197 529.697C261.603 528.29 263.511 527.5 265.5 527.5H291.75ZM314.25 560.237V532.262L301.125 538.094V554.406L314.25 560.241V560.237ZM261.75 535V557.5C261.75 558.495 262.145 559.448 262.848 560.152C263.552 560.855 264.505 561.25 265.5 561.25H293.625C294.62 561.25 295.573 560.855 296.277 560.152C296.98 559.448 297.375 558.495 297.375 557.5V535C297.375 534.005 296.98 533.052 296.277 532.348C295.573 531.645 294.62 531.25 293.625 531.25H265.5C264.505 531.25 263.552 531.645 262.848 532.348C262.145 533.052 261.75 534.005 261.75 535V535Z" fill="#ffaa4e"/>
<path d="M291.75 527.5C294.734 527.5 297.595 526.315 299.705 524.205C301.815 522.095 303 519.234 303 516.25C303 513.266 301.815 510.405 299.705 508.295C297.595 506.185 294.734 505 291.75 505C288.766 505 285.905 506.185 283.795 508.295C281.685 510.405 280.5 513.266 280.5 516.25C280.5 519.234 281.685 522.095 283.795 524.205C285.905 526.315 288.766 527.5 291.75 527.5V527.5ZM284.25 516.25C284.25 514.261 285.04 512.353 286.447 510.947C287.853 509.54 289.761 508.75 291.75 508.75C293.739 508.75 295.647 509.54 297.053 510.947C298.46 512.353 299.25 514.261 299.25 516.25C299.25 518.239 298.46 520.147 297.053 521.553C295.647 522.96 293.739 523.75 291.75 523.75C289.761 523.75 287.853 522.96 286.447 521.553C285.04 520.147 284.25 518.239 284.25 516.25V516.25Z" fill="#ffaa4e"/>
<path d="M655.5 746.25C655.5 749.234 654.315 752.095 652.205 754.205C650.095 756.315 647.234 757.5 644.25 757.5C641.266 757.5 638.405 756.315 636.295 754.205C634.185 752.095 633 749.234 633 746.25C633 743.266 634.185 740.405 636.295 738.295C638.405 736.185 641.266 735 644.25 735C647.234 735 650.095 736.185 652.205 738.295C654.315 740.405 655.5 743.266 655.5 746.25V746.25ZM636.75 746.25C636.75 748.239 637.54 750.147 638.947 751.553C640.353 752.96 642.261 753.75 644.25 753.75C646.239 753.75 648.147 752.96 649.553 751.553C650.96 750.147 651.75 748.239 651.75 746.25C651.75 744.261 650.96 742.353 649.553 740.947C648.147 739.54 646.239 738.75 644.25 738.75C642.261 738.75 640.353 739.54 638.947 740.947C637.54 742.353 636.75 744.261 636.75 746.25V746.25Z" fill="#ffaa4e"/>
<path d="M666.75 757.5H668.625C670.444 757.5 672.201 758.161 673.569 759.36C674.937 760.559 675.823 762.214 676.061 764.017L687.724 758.835C688.295 758.581 688.92 758.473 689.543 758.522C690.166 758.571 690.767 758.774 691.291 759.115C691.816 759.455 692.246 759.921 692.545 760.47C692.843 761.019 693 761.634 693 762.259V790.241C692.999 790.866 692.843 791.48 692.545 792.029C692.247 792.577 691.816 793.043 691.292 793.383C690.769 793.723 690.168 793.927 689.546 793.976C688.923 794.026 688.298 793.919 687.727 793.665L676.061 788.483C675.823 790.286 674.937 791.941 673.569 793.14C672.201 794.339 670.444 795 668.625 795H640.5C638.511 795 636.603 794.21 635.197 792.803C633.79 791.397 633 789.489 633 787.5V765C633 763.011 633.79 761.103 635.197 759.697C636.603 758.29 638.511 757.5 640.5 757.5H666.75ZM689.25 790.237V762.262L676.125 768.094V784.406L689.25 790.241V790.237ZM636.75 765V787.5C636.75 788.495 637.145 789.448 637.848 790.152C638.552 790.855 639.505 791.25 640.5 791.25H668.625C669.62 791.25 670.573 790.855 671.277 790.152C671.98 789.448 672.375 788.495 672.375 787.5V765C672.375 764.005 671.98 763.052 671.277 762.348C670.573 761.645 669.62 761.25 668.625 761.25H640.5C639.505 761.25 638.552 761.645 637.848 762.348C637.145 763.052 636.75 764.005 636.75 765V765Z" fill="#ffaa4e"/>
<path d="M666.75 757.5C669.734 757.5 672.595 756.315 674.705 754.205C676.815 752.095 678 749.234 678 746.25C678 743.266 676.815 740.405 674.705 738.295C672.595 736.185 669.734 735 666.75 735C663.766 735 660.905 736.185 658.795 738.295C656.685 740.405 655.5 743.266 655.5 746.25C655.5 749.234 656.685 752.095 658.795 754.205C660.905 756.315 663.766 757.5 666.75 757.5V757.5ZM659.25 746.25C659.25 744.261 660.04 742.353 661.447 740.947C662.853 739.54 664.761 738.75 666.75 738.75C668.739 738.75 670.647 739.54 672.053 740.947C673.46 742.353 674.25 744.261 674.25 746.25C674.25 748.239 673.46 750.147 672.053 751.553C670.647 752.96 668.739 753.75 666.75 753.75C664.761 753.75 662.853 752.96 661.447 751.553C660.04 750.147 659.25 748.239 659.25 746.25V746.25Z" fill="#ffaa4e"/>
<path d="M1136.5 235.25C1136.5 238.234 1135.31 241.095 1133.2 243.205C1131.1 245.315 1128.23 246.5 1125.25 246.5C1122.27 246.5 1119.4 245.315 1117.3 243.205C1115.19 241.095 1114 238.234 1114 235.25C1114 232.266 1115.19 229.405 1117.3 227.295C1119.4 225.185 1122.27 224 1125.25 224C1128.23 224 1131.1 225.185 1133.2 227.295C1135.31 229.405 1136.5 232.266 1136.5 235.25V235.25ZM1117.75 235.25C1117.75 237.239 1118.54 239.147 1119.95 240.553C1121.35 241.96 1123.26 242.75 1125.25 242.75C1127.24 242.75 1129.15 241.96 1130.55 240.553C1131.96 239.147 1132.75 237.239 1132.75 235.25C1132.75 233.261 1131.96 231.353 1130.55 229.947C1129.15 228.54 1127.24 227.75 1125.25 227.75C1123.26 227.75 1121.35 228.54 1119.95 229.947C1118.54 231.353 1117.75 233.261 1117.75 235.25V235.25Z" fill="#ffaa4e"/>
<path d="M1147.75 246.5H1149.62C1151.44 246.5 1153.2 247.161 1154.57 248.36C1155.94 249.559 1156.82 251.214 1157.06 253.017L1168.72 247.835C1169.29 247.581 1169.92 247.473 1170.54 247.522C1171.17 247.571 1171.77 247.774 1172.29 248.115C1172.82 248.455 1173.25 248.921 1173.54 249.47C1173.84 250.019 1174 250.634 1174 251.259V279.241C1174 279.866 1173.84 280.48 1173.54 281.029C1173.25 281.577 1172.82 282.043 1172.29 282.383C1171.77 282.723 1171.17 282.927 1170.55 282.976C1169.92 283.026 1169.3 282.919 1168.73 282.665L1157.06 277.483C1156.82 279.286 1155.94 280.941 1154.57 282.14C1153.2 283.339 1151.44 284 1149.62 284H1121.5C1119.51 284 1117.6 283.21 1116.2 281.803C1114.79 280.397 1114 278.489 1114 276.5V254C1114 252.011 1114.79 250.103 1116.2 248.697C1117.6 247.29 1119.51 246.5 1121.5 246.5H1147.75ZM1170.25 279.237V251.262L1157.12 257.094V273.406L1170.25 279.241V279.237ZM1117.75 254V276.5C1117.75 277.495 1118.15 278.448 1118.85 279.152C1119.55 279.855 1120.51 280.25 1121.5 280.25H1149.62C1150.62 280.25 1151.57 279.855 1152.28 279.152C1152.98 278.448 1153.38 277.495 1153.38 276.5V254C1153.38 253.005 1152.98 252.052 1152.28 251.348C1151.57 250.645 1150.62 250.25 1149.62 250.25H1121.5C1120.51 250.25 1119.55 250.645 1118.85 251.348C1118.15 252.052 1117.75 253.005 1117.75 254V254Z" fill="#ffaa4e"/>
<path d="M1147.75 246.5C1150.73 246.5 1153.6 245.315 1155.7 243.205C1157.81 241.095 1159 238.234 1159 235.25C1159 232.266 1157.81 229.405 1155.7 227.295C1153.6 225.185 1150.73 224 1147.75 224C1144.77 224 1141.9 225.185 1139.8 227.295C1137.69 229.405 1136.5 232.266 1136.5 235.25C1136.5 238.234 1137.69 241.095 1139.8 243.205C1141.9 245.315 1144.77 246.5 1147.75 246.5V246.5ZM1140.25 235.25C1140.25 233.261 1141.04 231.353 1142.45 229.947C1143.85 228.54 1145.76 227.75 1147.75 227.75C1149.74 227.75 1151.65 228.54 1153.05 229.947C1154.46 231.353 1155.25 233.261 1155.25 235.25C1155.25 237.239 1154.46 239.147 1153.05 240.553C1151.65 241.96 1149.74 242.75 1147.75 242.75C1145.76 242.75 1143.85 241.96 1142.45 240.553C1141.04 239.147 1140.25 237.239 1140.25 235.25V235.25Z" fill="#ffaa4e"/>
<path d="M505.5 173H468C466.674 173.001 465.403 173.529 464.466 174.466C463.529 175.403 463.001 176.674 463 178V214.39C461.487 213.49 459.761 213.01 458 213C456.022 213 454.089 213.586 452.444 214.685C450.8 215.784 449.518 217.346 448.761 219.173C448.004 221 447.806 223.011 448.192 224.951C448.578 226.891 449.53 228.673 450.929 230.071C452.327 231.47 454.109 232.422 456.049 232.808C457.989 233.194 460 232.996 461.827 232.239C463.654 231.482 465.216 230.2 466.315 228.556C467.414 226.911 468 224.978 468 223V193H505.5V214.39C503.987 213.49 502.261 213.01 500.5 213C498.522 213 496.589 213.586 494.944 214.685C493.3 215.784 492.018 217.346 491.261 219.173C490.504 221 490.306 223.011 490.692 224.951C491.078 226.891 492.03 228.673 493.429 230.071C494.827 231.47 496.609 232.422 498.549 232.808C500.489 233.194 502.5 232.996 504.327 232.239C506.154 231.482 507.716 230.2 508.815 228.556C509.914 226.911 510.5 224.978 510.5 223V178C510.499 176.674 509.971 175.403 509.034 174.466C508.097 173.529 506.826 173.001 505.5 173V173ZM458 228C457.011 228 456.044 227.707 455.222 227.157C454.4 226.608 453.759 225.827 453.381 224.913C453.002 224 452.903 222.994 453.096 222.025C453.289 221.055 453.765 220.164 454.464 219.464C455.164 218.765 456.055 218.289 457.025 218.096C457.994 217.903 459 218.002 459.913 218.381C460.827 218.759 461.608 219.4 462.157 220.222C462.707 221.044 463 222.011 463 223C462.999 224.326 462.471 225.597 461.534 226.534C460.597 227.471 459.326 227.999 458 228V228ZM500.5 228C499.511 228 498.544 227.707 497.722 227.157C496.9 226.608 496.259 225.827 495.881 224.913C495.502 224 495.403 222.994 495.596 222.025C495.789 221.055 496.265 220.164 496.964 219.464C497.664 218.765 498.555 218.289 499.525 218.096C500.494 217.903 501.5 218.002 502.413 218.381C503.327 218.759 504.108 219.4 504.657 220.222C505.207 221.044 505.5 222.011 505.5 223C505.498 224.325 504.971 225.596 504.033 226.533C503.096 227.471 501.825 227.998 500.5 228ZM468 178H505.5V188H468V178Z" fill="#ffaa4e"/>
<path d="M441.5 618H404C402.674 618.001 401.403 618.529 400.466 619.466C399.529 620.403 399.001 621.674 399 623V659.39C397.487 658.49 395.761 658.01 394 658C392.022 658 390.089 658.586 388.444 659.685C386.8 660.784 385.518 662.346 384.761 664.173C384.004 666 383.806 668.011 384.192 669.951C384.578 671.891 385.53 673.673 386.929 675.071C388.327 676.47 390.109 677.422 392.049 677.808C393.989 678.194 396 677.996 397.827 677.239C399.654 676.482 401.216 675.2 402.315 673.556C403.414 671.911 404 669.978 404 668V638H441.5V659.39C439.987 658.49 438.261 658.01 436.5 658C434.522 658 432.589 658.586 430.944 659.685C429.3 660.784 428.018 662.346 427.261 664.173C426.504 666 426.306 668.011 426.692 669.951C427.078 671.891 428.03 673.673 429.429 675.071C430.827 676.47 432.609 677.422 434.549 677.808C436.489 678.194 438.5 677.996 440.327 677.239C442.154 676.482 443.716 675.2 444.815 673.556C445.914 671.911 446.5 669.978 446.5 668V623C446.499 621.674 445.971 620.403 445.034 619.466C444.097 618.529 442.826 618.001 441.5 618V618ZM394 673C393.011 673 392.044 672.707 391.222 672.157C390.4 671.608 389.759 670.827 389.381 669.913C389.002 669 388.903 667.994 389.096 667.025C389.289 666.055 389.765 665.164 390.464 664.464C391.164 663.765 392.055 663.289 393.025 663.096C393.994 662.903 395 663.002 395.913 663.381C396.827 663.759 397.608 664.4 398.157 665.222C398.707 666.044 399 667.011 399 668C398.999 669.326 398.471 670.597 397.534 671.534C396.597 672.471 395.326 672.999 394 673V673ZM436.5 673C435.511 673 434.544 672.707 433.722 672.157C432.9 671.608 432.259 670.827 431.881 669.913C431.502 669 431.403 667.994 431.596 667.025C431.789 666.055 432.265 665.164 432.964 664.464C433.664 663.765 434.555 663.289 435.525 663.096C436.494 662.903 437.5 663.002 438.413 663.381C439.327 663.759 440.108 664.4 440.657 665.222C441.207 666.044 441.5 667.011 441.5 668C441.498 669.325 440.971 670.596 440.033 671.533C439.096 672.471 437.825 672.998 436.5 673ZM404 623H441.5V633H404V623Z" fill="#ffaa4e"/>
<path d="M1378.5 578H1341C1339.67 578.001 1338.4 578.529 1337.47 579.466C1336.53 580.403 1336 581.674 1336 583V619.39C1334.49 618.49 1332.76 618.01 1331 618C1329.02 618 1327.09 618.586 1325.44 619.685C1323.8 620.784 1322.52 622.346 1321.76 624.173C1321 626 1320.81 628.011 1321.19 629.951C1321.58 631.891 1322.53 633.673 1323.93 635.071C1325.33 636.47 1327.11 637.422 1329.05 637.808C1330.99 638.194 1333 637.996 1334.83 637.239C1336.65 636.482 1338.22 635.2 1339.31 633.556C1340.41 631.911 1341 629.978 1341 628V598H1378.5V619.39C1376.99 618.49 1375.26 618.01 1373.5 618C1371.52 618 1369.59 618.586 1367.94 619.685C1366.3 620.784 1365.02 622.346 1364.26 624.173C1363.5 626 1363.31 628.011 1363.69 629.951C1364.08 631.891 1365.03 633.673 1366.43 635.071C1367.83 636.47 1369.61 637.422 1371.55 637.808C1373.49 638.194 1375.5 637.996 1377.33 637.239C1379.15 636.482 1380.72 635.2 1381.81 633.556C1382.91 631.911 1383.5 629.978 1383.5 628V583C1383.5 581.674 1382.97 580.403 1382.03 579.466C1381.1 578.529 1379.83 578.001 1378.5 578V578ZM1331 633C1330.01 633 1329.04 632.707 1328.22 632.157C1327.4 631.608 1326.76 630.827 1326.38 629.913C1326 629 1325.9 627.994 1326.1 627.025C1326.29 626.055 1326.77 625.164 1327.46 624.464C1328.16 623.765 1329.05 623.289 1330.02 623.096C1330.99 622.903 1332 623.002 1332.91 623.381C1333.83 623.759 1334.61 624.4 1335.16 625.222C1335.71 626.044 1336 627.011 1336 628C1336 629.326 1335.47 630.597 1334.53 631.534C1333.6 632.471 1332.33 632.999 1331 633V633ZM1373.5 633C1372.51 633 1371.54 632.707 1370.72 632.157C1369.9 631.608 1369.26 630.827 1368.88 629.913C1368.5 629 1368.4 627.994 1368.6 627.025C1368.79 626.055 1369.27 625.164 1369.96 624.464C1370.66 623.765 1371.55 623.289 1372.52 623.096C1373.49 622.903 1374.5 623.002 1375.41 623.381C1376.33 623.759 1377.11 624.4 1377.66 625.222C1378.21 626.044 1378.5 627.011 1378.5 628C1378.5 629.325 1377.97 630.596 1377.03 631.533C1376.1 632.471 1374.83 632.998 1373.5 633ZM1341 583H1378.5V593H1341V583Z" fill="#ffaa4e"/>
<path d="M115.5 264H78C76.6743 264.001 75.4033 264.529 74.4659 265.466C73.5285 266.403 73.0013 267.674 73 269V305.39C71.4868 304.49 69.7607 304.01 68 304C66.0222 304 64.0888 304.586 62.4443 305.685C60.7998 306.784 59.5181 308.346 58.7612 310.173C58.0043 312 57.8063 314.011 58.1922 315.951C58.578 317.891 59.5304 319.673 60.9289 321.071C62.3275 322.47 64.1093 323.422 66.0491 323.808C67.9889 324.194 69.9996 323.996 71.8268 323.239C73.6541 322.482 75.2159 321.2 76.3147 319.556C77.4135 317.911 78 315.978 78 314V284H115.5V305.39C113.987 304.49 112.261 304.01 110.5 304C108.522 304 106.589 304.586 104.944 305.685C103.3 306.784 102.018 308.346 101.261 310.173C100.504 312 100.306 314.011 100.692 315.951C101.078 317.891 102.03 319.673 103.429 321.071C104.827 322.47 106.609 323.422 108.549 323.808C110.489 324.194 112.5 323.996 114.327 323.239C116.154 322.482 117.716 321.2 118.815 319.556C119.914 317.911 120.5 315.978 120.5 314V269C120.499 267.674 119.971 266.403 119.034 265.466C118.097 264.529 116.826 264.001 115.5 264V264ZM68 319C67.0111 319 66.0444 318.707 65.2222 318.157C64.3999 317.608 63.759 316.827 63.3806 315.913C63.0022 315 62.9032 313.994 63.0961 313.025C63.289 312.055 63.7652 311.164 64.4645 310.464C65.1637 309.765 66.0546 309.289 67.0246 309.096C67.9945 308.903 68.9998 309.002 69.9134 309.381C70.8271 309.759 71.6079 310.4 72.1574 311.222C72.7068 312.044 73 313.011 73 314C72.9987 315.326 72.4715 316.597 71.5341 317.534C70.5967 318.471 69.3257 318.999 68 319V319ZM110.5 319C109.511 319 108.544 318.707 107.722 318.157C106.9 317.608 106.259 316.827 105.881 315.913C105.502 315 105.403 313.994 105.596 313.025C105.789 312.055 106.265 311.164 106.964 310.464C107.664 309.765 108.555 309.289 109.525 309.096C110.494 308.903 111.5 309.002 112.413 309.381C113.327 309.759 114.108 310.4 114.657 311.222C115.207 312.044 115.5 313.011 115.5 314C115.498 315.325 114.971 316.596 114.033 317.533C113.096 318.471 111.825 318.998 110.5 319ZM78 269H115.5V279H78V269Z" fill="#ffaa4e"/>
<path d="M162.934 455.965C162.713 455.897 162.48 455.882 162.252 455.921C162.025 455.959 161.809 456.051 161.624 456.188C161.438 456.325 161.287 456.504 161.183 456.71C161.079 456.916 161.025 457.144 161.025 457.375V486.595C159.414 485.049 157.314 484.114 155.088 483.951C152.861 483.788 150.648 484.407 148.829 485.701C147.01 486.996 145.7 488.884 145.124 491.041C144.549 493.198 144.744 495.488 145.676 497.517C146.608 499.545 148.219 501.185 150.231 502.153C152.243 503.12 154.529 503.356 156.696 502.819C158.862 502.281 160.774 501.004 162.1 499.209C163.426 497.413 164.084 495.21 163.96 492.981C163.97 492.913 163.975 492.844 163.975 492.775V471.172L181.241 476.482C181.462 476.55 181.695 476.565 181.922 476.526C182.15 476.488 182.365 476.396 182.55 476.26C182.736 476.123 182.887 475.944 182.991 475.739C183.095 475.533 183.15 475.306 183.15 475.075V467.632C183.15 466.055 182.645 464.518 181.708 463.249C180.771 461.98 179.451 461.045 177.943 460.582L162.934 455.965V455.965Z" fill="#ffaa4e"/>
<path d="M493.934 325.965C493.713 325.897 493.48 325.882 493.252 325.921C493.025 325.959 492.809 326.051 492.624 326.188C492.438 326.325 492.287 326.504 492.183 326.71C492.079 326.916 492.025 327.144 492.025 327.375V356.595C490.414 355.049 488.314 354.114 486.088 353.951C483.861 353.788 481.648 354.407 479.829 355.701C478.01 356.996 476.7 358.884 476.124 361.041C475.549 363.198 475.744 365.488 476.676 367.517C477.608 369.545 479.219 371.185 481.231 372.153C483.243 373.12 485.529 373.356 487.696 372.819C489.862 372.281 491.774 371.004 493.1 369.209C494.426 367.413 495.084 365.21 494.96 362.981C494.97 362.913 494.975 362.844 494.975 362.775V341.172L512.241 346.482C512.462 346.55 512.695 346.565 512.922 346.526C513.15 346.488 513.365 346.396 513.55 346.26C513.736 346.123 513.887 345.944 513.991 345.739C514.095 345.533 514.15 345.306 514.15 345.075V337.632C514.15 336.055 513.645 334.518 512.708 333.249C511.771 331.98 510.451 331.045 508.943 330.582L493.934 325.965V325.965Z" fill="#ffaa4e"/>
<path d="M916.934 741.965C916.713 741.897 916.48 741.882 916.252 741.921C916.025 741.959 915.809 742.051 915.624 742.188C915.438 742.325 915.287 742.504 915.183 742.71C915.079 742.916 915.025 743.144 915.025 743.375V772.595C913.414 771.049 911.314 770.114 909.088 769.951C906.861 769.788 904.648 770.407 902.829 771.701C901.01 772.996 899.7 774.884 899.124 777.041C898.549 779.198 898.744 781.488 899.676 783.517C900.608 785.545 902.219 787.185 904.231 788.153C906.243 789.12 908.529 789.356 910.696 788.819C912.862 788.281 914.774 787.004 916.1 785.209C917.426 783.413 918.084 781.21 917.96 778.981C917.97 778.913 917.975 778.844 917.975 778.775V757.172L935.241 762.482C935.462 762.55 935.695 762.565 935.922 762.526C936.15 762.488 936.365 762.396 936.55 762.26C936.736 762.123 936.887 761.944 936.991 761.739C937.095 761.533 937.15 761.306 937.15 761.075V753.632C937.15 752.055 936.645 750.518 935.708 749.249C934.771 747.98 933.451 747.045 931.943 746.582L916.934 741.965V741.965Z" fill="#ffaa4e"/>
<path d="M1442.93 455.965C1442.71 455.897 1442.48 455.882 1442.25 455.921C1442.02 455.959 1441.81 456.051 1441.62 456.188C1441.44 456.325 1441.29 456.504 1441.18 456.71C1441.08 456.916 1441.03 457.144 1441.03 457.375V486.595C1439.41 485.049 1437.31 484.114 1435.09 483.951C1432.86 483.788 1430.65 484.407 1428.83 485.701C1427.01 486.996 1425.7 488.884 1425.12 491.041C1424.55 493.198 1424.74 495.488 1425.68 497.517C1426.61 499.545 1428.22 501.185 1430.23 502.153C1432.24 503.12 1434.53 503.356 1436.7 502.819C1438.86 502.281 1440.77 501.004 1442.1 499.209C1443.43 497.413 1444.08 495.21 1443.96 492.981C1443.97 492.913 1443.97 492.844 1443.98 492.775V471.172L1461.24 476.482C1461.46 476.55 1461.7 476.565 1461.92 476.526C1462.15 476.488 1462.36 476.396 1462.55 476.26C1462.74 476.123 1462.89 475.944 1462.99 475.739C1463.1 475.533 1463.15 475.306 1463.15 475.075V467.632C1463.15 466.055 1462.64 464.518 1461.71 463.249C1460.77 461.98 1459.45 461.045 1457.94 460.582L1442.93 455.965V455.965Z" fill="#ffaa4e"/>
<path d="M412.104 483.625H459.896C460.386 483.626 460.859 483.813 461.217 484.148C461.575 484.483 461.793 484.942 461.826 485.432C461.859 485.921 461.705 486.405 461.395 486.786C461.085 487.166 460.643 487.415 460.157 487.482L459.896 487.5H412.107C411.612 487.505 411.135 487.321 410.772 486.985C410.409 486.65 410.188 486.188 410.154 485.695C410.12 485.201 410.277 484.714 410.591 484.332C410.905 483.95 411.353 483.703 411.843 483.64L412.107 483.625H459.893H412.107H412.104ZM452.146 453.917C454.641 453.917 456.667 455.942 456.667 458.437V477.812C456.667 479.011 456.19 480.161 455.343 481.009C454.495 481.857 453.345 482.333 452.146 482.333H419.854C418.655 482.333 417.505 481.857 416.657 481.009C415.81 480.161 415.333 479.011 415.333 477.812V458.437C415.333 455.942 417.356 453.917 419.854 453.917H452.146ZM452.146 457.792H419.854C419.683 457.792 419.519 457.86 419.397 457.981C419.276 458.102 419.208 458.266 419.208 458.437V477.812C419.208 478.169 419.498 478.458 419.854 478.458H452.146C452.317 478.458 452.481 478.39 452.602 478.269C452.724 478.148 452.792 477.984 452.792 477.812V458.437C452.792 458.266 452.724 458.102 452.602 457.981C452.481 457.86 452.317 457.792 452.146 457.792Z" fill="#ffaa4e"/>
<path d="M915.104 569.625H962.896C963.386 569.626 963.859 569.813 964.217 570.148C964.575 570.483 964.793 570.942 964.826 571.432C964.859 571.921 964.705 572.405 964.395 572.786C964.085 573.166 963.643 573.415 963.157 573.482L962.896 573.5H915.107C914.612 573.505 914.135 573.321 913.772 572.985C913.409 572.65 913.188 572.188 913.154 571.695C913.12 571.201 913.277 570.714 913.591 570.332C913.905 569.95 914.353 569.703 914.843 569.64L915.107 569.625H962.893H915.107H915.104ZM955.146 539.917C957.641 539.917 959.667 541.942 959.667 544.437V563.812C959.667 565.011 959.19 566.161 958.343 567.009C957.495 567.857 956.345 568.333 955.146 568.333H922.854C921.655 568.333 920.505 567.857 919.657 567.009C918.81 566.161 918.333 565.011 918.333 563.812V544.437C918.333 541.942 920.356 539.917 922.854 539.917H955.146ZM955.146 543.792H922.854C922.683 543.792 922.519 543.86 922.397 543.981C922.276 544.102 922.208 544.266 922.208 544.437V563.812C922.208 564.169 922.498 564.458 922.854 564.458H955.146C955.317 564.458 955.481 564.39 955.602 564.269C955.724 564.148 955.792 563.984 955.792 563.812V544.437C955.792 544.266 955.724 544.102 955.602 543.981C955.481 543.86 955.317 543.792 955.146 543.792Z" fill="#ffaa4e"/>
<path d="M450.104 788.625H497.896C498.386 788.626 498.859 788.813 499.217 789.148C499.575 789.483 499.793 789.942 499.826 790.432C499.859 790.921 499.705 791.405 499.395 791.786C499.085 792.166 498.643 792.415 498.157 792.482L497.896 792.5H450.107C449.612 792.505 449.135 792.321 448.772 791.985C448.409 791.65 448.188 791.188 448.154 790.695C448.12 790.201 448.277 789.714 448.591 789.332C448.905 788.95 449.353 788.703 449.843 788.64L450.107 788.625H497.893H450.107H450.104ZM490.146 758.917C492.641 758.917 494.667 760.942 494.667 763.437V782.812C494.667 784.011 494.19 785.161 493.343 786.009C492.495 786.857 491.345 787.333 490.146 787.333H457.854C456.655 787.333 455.505 786.857 454.657 786.009C453.81 785.161 453.333 784.011 453.333 782.812V763.437C453.333 760.942 455.356 758.917 457.854 758.917H490.146ZM490.146 762.792H457.854C457.683 762.792 457.519 762.86 457.397 762.981C457.276 763.102 457.208 763.266 457.208 763.437V782.812C457.208 783.169 457.498 783.458 457.854 783.458H490.146C490.317 783.458 490.481 783.39 490.602 783.269C490.724 783.148 490.792 782.984 490.792 782.812V763.437C490.792 763.266 490.724 763.102 490.602 762.981C490.481 762.86 490.317 762.792 490.146 762.792Z" fill="#ffaa4e"/>
<path d="M65.1042 671.625H112.896C113.386 671.626 113.859 671.813 114.217 672.148C114.575 672.483 114.793 672.942 114.826 673.432C114.859 673.921 114.705 674.405 114.395 674.786C114.085 675.166 113.643 675.415 113.157 675.482L112.896 675.5H65.1067C64.6124 675.505 64.1347 675.321 63.7717 674.985C63.4087 674.65 63.1877 674.188 63.154 673.695C63.1204 673.201 63.2765 672.714 63.5906 672.332C63.9046 671.95 64.3528 671.703 64.8432 671.64L65.1067 671.625H112.893H65.1067H65.1042ZM105.146 641.917C107.641 641.917 109.667 643.942 109.667 646.437V665.812C109.667 667.011 109.19 668.161 108.343 669.009C107.495 669.857 106.345 670.333 105.146 670.333H72.8542C71.6552 670.333 70.5053 669.857 69.6574 669.009C68.8096 668.161 68.3333 667.011 68.3333 665.812V646.437C68.3333 643.942 70.3561 641.917 72.8542 641.917H105.146ZM105.146 645.792H72.8542C72.6829 645.792 72.5186 645.86 72.3975 645.981C72.2764 646.102 72.2083 646.266 72.2083 646.437V665.812C72.2083 666.169 72.4977 666.458 72.8542 666.458H105.146C105.317 666.458 105.481 666.39 105.602 666.269C105.724 666.148 105.792 665.984 105.792 665.812V646.437C105.792 646.266 105.724 646.102 105.602 645.981C105.481 645.86 105.317 645.792 105.146 645.792Z" fill="#ffaa4e"/>
<path d="M1244.1 153.625H1291.9C1292.39 153.626 1292.86 153.813 1293.22 154.148C1293.58 154.483 1293.79 154.942 1293.83 155.432C1293.86 155.921 1293.71 156.405 1293.4 156.786C1293.09 157.166 1292.64 157.415 1292.16 157.482L1291.9 157.5H1244.11C1243.61 157.505 1243.13 157.321 1242.77 156.985C1242.41 156.65 1242.19 156.188 1242.15 155.695C1242.12 155.201 1242.28 154.714 1242.59 154.332C1242.9 153.95 1243.35 153.703 1243.84 153.64L1244.11 153.625H1291.89H1244.11H1244.1ZM1284.15 123.917C1286.64 123.917 1288.67 125.942 1288.67 128.437V147.812C1288.67 149.011 1288.19 150.161 1287.34 151.009C1286.49 151.857 1285.34 152.333 1284.15 152.333H1251.85C1250.66 152.333 1249.51 151.857 1248.66 151.009C1247.81 150.161 1247.33 149.011 1247.33 147.812V128.437C1247.33 125.942 1249.36 123.917 1251.85 123.917H1284.15ZM1284.15 127.792H1251.85C1251.68 127.792 1251.52 127.86 1251.4 127.981C1251.28 128.102 1251.21 128.266 1251.21 128.437V147.812C1251.21 148.169 1251.5 148.458 1251.85 148.458H1284.15C1284.32 148.458 1284.48 148.39 1284.6 148.269C1284.72 148.148 1284.79 147.984 1284.79 147.812V128.437C1284.79 128.266 1284.72 128.102 1284.6 127.981C1284.48 127.86 1284.32 127.792 1284.15 127.792Z" fill="#ffaa4e"/>
<path d="M381.104 81.625H428.896C429.386 81.6258 429.859 81.8127 430.217 82.148C430.575 82.4834 430.793 82.9421 430.826 83.4317C430.859 83.9212 430.705 84.4051 430.395 84.7857C430.085 85.1662 429.643 85.415 429.157 85.4819L428.896 85.5H381.107C380.612 85.505 380.135 85.3208 379.772 84.9852C379.409 84.6495 379.188 84.1878 379.154 83.6945C379.12 83.2013 379.277 82.7138 379.591 82.3319C379.905 81.95 380.353 81.7027 380.843 81.6405L381.107 81.625H428.893H381.107H381.104ZM421.146 51.9166C423.641 51.9166 425.667 53.942 425.667 56.4375V75.8125C425.667 77.0115 425.19 78.1614 424.343 79.0092C423.495 79.857 422.345 80.3333 421.146 80.3333H388.854C387.655 80.3333 386.505 79.857 385.657 79.0092C384.81 78.1614 384.333 77.0115 384.333 75.8125V56.4375C384.333 53.942 386.356 51.9166 388.854 51.9166H421.146ZM421.146 55.7916H388.854C388.683 55.7916 388.519 55.8597 388.397 55.9808C388.276 56.1019 388.208 56.2662 388.208 56.4375V75.8125C388.208 76.169 388.498 76.4583 388.854 76.4583H421.146C421.317 76.4583 421.481 76.3903 421.602 76.2691C421.724 76.148 421.792 75.9837 421.792 75.8125V56.4375C421.792 56.2662 421.724 56.1019 421.602 55.9808C421.481 55.8597 421.317 55.7916 421.146 55.7916Z" fill="#ffaa4e"/>
<path d="M288.333 293.667V280.333H301.667" stroke="#ffaa4e" stroke-width="2" stroke-linecap="round" stroke-linejoin="round"/>
<path d="M341.667 293.667V280.333H328.333" stroke="#ffaa4e" stroke-width="2" stroke-linecap="round" stroke-linejoin="round"/>
<path d="M301.667 333.667H288.333V320.333" stroke="#ffaa4e" stroke-width="2" stroke-linecap="round" stroke-linejoin="round"/>
<path d="M328.333 333.667H341.667V320.333" stroke="#ffaa4e" stroke-width="2" stroke-linecap="round" stroke-linejoin="round"/>
<path d="M1098.33 468.667V455.333H1111.67" stroke="#ffaa4e" stroke-width="2" stroke-linecap="round" stroke-linejoin="round"/>
<path d="M1151.67 468.667V455.333H1138.33" stroke="#ffaa4e" stroke-width="2" stroke-linecap="round" stroke-linejoin="round"/>
<path d="M1111.67 508.667H1098.33V495.333" stroke="#ffaa4e" stroke-width="2" stroke-linecap="round" stroke-linejoin="round"/>
<path d="M1138.33 508.667H1151.67V495.333" stroke="#ffaa4e" stroke-width="2" stroke-linecap="round" stroke-linejoin="round"/>
<path d="M980.333 78.6667V65.3334H993.667" stroke="#ffaa4e" stroke-width="2" stroke-linecap="round" stroke-linejoin="round"/>
<path d="M1033.67 78.6667V65.3334H1020.33" stroke="#ffaa4e" stroke-width="2" stroke-linecap="round" stroke-linejoin="round"/>
<path d="M993.667 118.667H980.333V105.333" stroke="#ffaa4e" stroke-width="2" stroke-linecap="round" stroke-linejoin="round"/>
<path d="M1020.33 118.667H1033.67V105.333" stroke="#ffaa4e" stroke-width="2" stroke-linecap="round" stroke-linejoin="round"/>
<path d="M1344.33 775.667V762.333H1357.67" stroke="#ffaa4e" stroke-width="2" stroke-linecap="round" stroke-linejoin="round"/>
<path d="M1397.67 775.667V762.333H1384.33" stroke="#ffaa4e" stroke-width="2" stroke-linecap="round" stroke-linejoin="round"/>
<path d="M1357.67 815.667H1344.33V802.333" stroke="#ffaa4e" stroke-width="2" stroke-linecap="round" stroke-linejoin="round"/>
<path d="M1384.33 815.667H1397.67V802.333" stroke="#ffaa4e" stroke-width="2" stroke-linecap="round" stroke-linejoin="round"/>
<path d="M715.333 218.667V205.333H728.667" stroke="#ffaa4e" stroke-width="2" stroke-linecap="round" stroke-linejoin="round"/>
<path d="M768.667 218.667V205.333H755.333" stroke="#ffaa4e" stroke-width="2" stroke-linecap="round" stroke-linejoin="round"/>
<path d="M728.667 258.667H715.333V245.333" stroke="#ffaa4e" stroke-width="2" stroke-linecap="round" stroke-linejoin="round"/>
<path d="M755.333 258.667H768.667V245.333" stroke="#ffaa4e" stroke-width="2" stroke-linecap="round" stroke-linejoin="round"/>
<path d="M1389.33 83.6667V70.3334H1402.67" stroke="#ffaa4e" stroke-width="2" stroke-linecap="round" stroke-linejoin="round"/>
<path d="M1442.67 83.6667V70.3334H1429.33" stroke="#ffaa4e" stroke-width="2" stroke-linecap="round" stroke-linejoin="round"/>
<path d="M1402.67 123.667H1389.33V110.333" stroke="#ffaa4e" stroke-width="2" stroke-linecap="round" stroke-linejoin="round"/>
<path d="M1429.33 123.667H1442.67V110.333" stroke="#ffaa4e" stroke-width="2" stroke-linecap="round" stroke-linejoin="round"/>
<path d="M612 83.125C619.658 83.125 627.003 86.1672 632.418 91.5823C637.833 96.9974 640.875 104.342 640.875 112C640.875 119.658 637.833 127.003 632.418 132.418C627.003 137.833 619.658 140.875 612 140.875C604.342 140.875 596.997 137.833 591.582 132.418C586.167 127.003 583.125 119.658 583.125 112C583.125 104.342 586.167 96.9974 591.582 91.5823C596.997 86.1672 604.342 83.125 612 83.125V83.125ZM612 136.75C618.564 136.75 624.859 134.142 629.501 129.501C634.142 124.859 636.75 118.564 636.75 112C636.75 105.436 634.142 99.1406 629.501 94.4991C624.859 89.8576 618.564 87.25 612 87.25C605.436 87.25 599.141 89.8576 594.499 94.4991C589.858 99.1406 587.25 105.436 587.25 112C587.25 118.564 589.858 124.859 594.499 129.501C599.141 134.142 605.436 136.75 612 136.75V136.75ZM608.906 120.79L622.094 112L608.906 103.21V120.79ZM609.591 98.7051L625.67 109.426C626.094 109.709 626.441 110.091 626.682 110.54C626.922 110.989 627.048 111.491 627.048 112C627.048 112.509 626.922 113.011 626.682 113.46C626.441 113.909 626.094 114.291 625.67 114.574L609.591 125.295C609.125 125.605 608.584 125.784 608.024 125.811C607.465 125.838 606.909 125.713 606.415 125.448C605.922 125.184 605.509 124.791 605.221 124.311C604.933 123.83 604.781 123.281 604.781 122.721V101.275C604.781 100.715 604.933 100.166 605.221 99.6853C605.509 99.205 605.922 98.8117 606.415 98.5475C606.909 98.2833 607.465 98.1581 608.024 98.1851C608.584 98.2121 609.125 98.3904 609.591 98.701V98.7051Z" fill="#ffaa4e"/>
<path d="M219 733.125C226.658 733.125 234.003 736.167 239.418 741.582C244.833 746.997 247.875 754.342 247.875 762C247.875 769.658 244.833 777.003 239.418 782.418C234.003 787.833 226.658 790.875 219 790.875C211.342 790.875 203.997 787.833 198.582 782.418C193.167 777.003 190.125 769.658 190.125 762C190.125 754.342 193.167 746.997 198.582 741.582C203.997 736.167 211.342 733.125 219 733.125V733.125ZM219 786.75C225.564 786.75 231.859 784.142 236.501 779.501C241.142 774.859 243.75 768.564 243.75 762C243.75 755.436 241.142 749.141 236.501 744.499C231.859 739.858 225.564 737.25 219 737.25C212.436 737.25 206.141 739.858 201.499 744.499C196.858 749.141 194.25 755.436 194.25 762C194.25 768.564 196.858 774.859 201.499 779.501C206.141 784.142 212.436 786.75 219 786.75V786.75ZM215.906 770.79L229.094 762L215.906 753.21V770.79ZM216.591 748.705L232.67 759.426C233.094 759.709 233.441 760.091 233.682 760.54C233.922 760.989 234.048 761.491 234.048 762C234.048 762.509 233.922 763.011 233.682 763.46C233.441 763.909 233.094 764.291 232.67 764.574L216.591 775.295C216.125 775.605 215.584 775.784 215.024 775.811C214.465 775.838 213.909 775.713 213.415 775.448C212.922 775.184 212.509 774.791 212.221 774.311C211.933 773.83 211.781 773.281 211.781 772.721V751.275C211.781 750.715 211.933 750.166 212.221 749.685C212.509 749.205 212.922 748.812 213.415 748.548C213.909 748.283 214.465 748.158 215.024 748.185C215.584 748.212 216.125 748.39 216.591 748.701V748.705Z" fill="#ffaa4e"/>
<path d="M854 608.125C861.658 608.125 869.003 611.167 874.418 616.582C879.833 621.997 882.875 629.342 882.875 637C882.875 644.658 879.833 652.003 874.418 657.418C869.003 662.833 861.658 665.875 854 665.875C846.342 665.875 838.997 662.833 833.582 657.418C828.167 652.003 825.125 644.658 825.125 637C825.125 629.342 828.167 621.997 833.582 616.582C838.997 611.167 846.342 608.125 854 608.125V608.125ZM854 661.75C860.564 661.75 866.859 659.142 871.501 654.501C876.142 649.859 878.75 643.564 878.75 637C878.75 630.436 876.142 624.141 871.501 619.499C866.859 614.858 860.564 612.25 854 612.25C847.436 612.25 841.141 614.858 836.499 619.499C831.858 624.141 829.25 630.436 829.25 637C829.25 643.564 831.858 649.859 836.499 654.501C841.141 659.142 847.436 661.75 854 661.75V661.75ZM850.906 645.79L864.094 637L850.906 628.21V645.79ZM851.591 623.705L867.67 634.426C868.094 634.709 868.441 635.091 868.682 635.54C868.922 635.989 869.048 636.491 869.048 637C869.048 637.509 868.922 638.011 868.682 638.46C868.441 638.909 868.094 639.291 867.67 639.574L851.591 650.295C851.125 650.605 850.584 650.784 850.024 650.811C849.465 650.838 848.909 650.713 848.415 650.448C847.922 650.184 847.509 649.791 847.221 649.311C846.933 648.83 846.781 648.281 846.781 647.721V626.275C846.781 625.715 846.933 625.166 847.221 624.685C847.509 624.205 847.922 623.812 848.415 623.548C848.909 623.283 849.465 623.158 850.024 623.185C850.584 623.212 851.125 623.39 851.591 623.701V623.705Z" fill="#ffaa4e"/>
<path d="M974 241.125C981.658 241.125 989.003 244.167 994.418 249.582C999.833 254.997 1002.88 262.342 1002.88 270C1002.88 277.658 999.833 285.003 994.418 290.418C989.003 295.833 981.658 298.875 974 298.875C966.342 298.875 958.997 295.833 953.582 290.418C948.167 285.003 945.125 277.658 945.125 270C945.125 262.342 948.167 254.997 953.582 249.582C958.997 244.167 966.342 241.125 974 241.125V241.125ZM974 294.75C980.564 294.75 986.859 292.142 991.501 287.501C996.142 282.859 998.75 276.564 998.75 270C998.75 263.436 996.142 257.141 991.501 252.499C986.859 247.858 980.564 245.25 974 245.25C967.436 245.25 961.141 247.858 956.499 252.499C951.858 257.141 949.25 263.436 949.25 270C949.25 276.564 951.858 282.859 956.499 287.501C961.141 292.142 967.436 294.75 974 294.75V294.75ZM970.906 278.79L984.094 270L970.906 261.21V278.79ZM971.591 256.705L987.67 267.426C988.094 267.709 988.441 268.091 988.682 268.54C988.922 268.989 989.048 269.491 989.048 270C989.048 270.509 988.922 271.011 988.682 271.46C988.441 271.909 988.094 272.291 987.67 272.574L971.591 283.295C971.125 283.605 970.584 283.784 970.024 283.811C969.465 283.838 968.909 283.713 968.415 283.448C967.922 283.184 967.509 282.791 967.221 282.311C966.933 281.83 966.781 281.281 966.781 280.721V259.275C966.781 258.715 966.933 258.166 967.221 257.685C967.509 257.205 967.922 256.812 968.415 256.548C968.909 256.283 969.465 256.158 970.024 256.185C970.584 256.212 971.125 256.39 971.591 256.701V256.705Z" fill="#ffaa4e"/>
<path d="M73 39.125C80.6581 39.125 88.0026 42.1672 93.4177 47.5823C98.8328 52.9974 101.875 60.3419 101.875 68C101.875 75.6581 98.8328 83.0026 93.4177 88.4177C88.0026 93.8328 80.6581 96.875 73 96.875C65.3419 96.875 57.9974 93.8328 52.5823 88.4177C47.1672 83.0026 44.125 75.6581 44.125 68C44.125 60.3419 47.1672 52.9974 52.5823 47.5823C57.9974 42.1672 65.3419 39.125 73 39.125V39.125ZM73 92.75C79.5641 92.75 85.8594 90.1424 90.5009 85.5009C95.1424 80.8594 97.75 74.5641 97.75 68C97.75 61.4359 95.1424 55.1406 90.5009 50.4991C85.8594 45.8576 79.5641 43.25 73 43.25C66.4359 43.25 60.1406 45.8576 55.4991 50.4991C50.8576 55.1406 48.25 61.4359 48.25 68C48.25 74.5641 50.8576 80.8594 55.4991 85.5009C60.1406 90.1424 66.4359 92.75 73 92.75V92.75ZM69.9062 76.7904L83.0939 68L69.9062 59.2096V76.7904ZM70.591 54.7051L86.6703 65.426C87.094 65.7085 87.4414 66.0913 87.6817 66.5403C87.9219 66.9893 88.0477 67.4907 88.0477 68C88.0477 68.5093 87.9219 69.0107 87.6817 69.4597C87.4414 69.9087 87.094 70.2915 86.6703 70.574L70.591 81.2949C70.1251 81.6055 69.5836 81.7838 69.0243 81.8108C68.4651 81.8378 67.9089 81.7126 67.4152 81.4484C66.9215 81.1842 66.5088 80.7909 66.2211 80.3106C65.9333 79.8302 65.7813 79.2808 65.7812 78.7209V57.275C65.7813 56.7151 65.9333 56.1656 66.2211 55.6853C66.5088 55.205 66.9215 54.8117 67.4152 54.5475C67.9089 54.2833 68.4651 54.1581 69.0243 54.1851C69.5836 54.2121 70.1251 54.3904 70.591 54.701V54.7051Z" fill="#ffaa4e"/>
<path d="M669.953 550.887V542.938C669.953 538.607 668.233 534.454 665.171 531.392C662.109 528.33 657.955 526.609 653.625 526.609H612.375C608.044 526.609 603.891 528.33 600.829 531.392C597.767 534.454 596.047 538.607 596.047 542.938V550.887C592.225 551.513 588.75 553.477 586.243 556.429C583.735 559.38 582.359 563.127 582.359 567C582.359 570.873 583.735 574.62 586.243 577.571C588.75 580.523 592.225 582.487 596.047 583.113V597.938C596.047 599.533 596.681 601.063 597.809 602.191C598.937 603.319 600.467 603.953 602.062 603.953H663.937C665.533 603.953 667.063 603.319 668.191 602.191C669.319 601.063 669.953 599.533 669.953 597.938V583.113C673.775 582.487 677.25 580.523 679.757 577.571C682.265 574.62 683.641 570.873 683.641 567C683.641 563.127 682.265 559.38 679.757 556.429C677.25 553.477 673.775 551.513 669.953 550.887V550.887ZM612.375 531.766H653.625C656.584 531.777 659.419 532.958 661.512 535.05C663.605 537.143 664.786 539.978 664.797 542.938V550.887C660.967 551.508 657.483 553.469 654.965 556.42C652.446 559.371 651.058 563.12 651.047 567V567.859H614.953V567C614.942 563.12 613.554 559.371 611.035 556.42C608.517 553.469 605.033 551.508 601.203 550.887V542.938C601.214 539.978 602.395 537.143 604.488 535.05C606.58 532.958 609.415 531.777 612.375 531.766V531.766ZM667.504 578.172H667.375C666.691 578.172 666.035 578.443 665.552 578.927C665.068 579.41 664.797 580.066 664.797 580.75V597.938C664.797 598.165 664.706 598.384 664.545 598.545C664.384 598.706 664.165 598.797 663.937 598.797H602.062C601.835 598.797 601.616 598.706 601.455 598.545C601.294 598.384 601.203 598.165 601.203 597.938V580.75C601.203 580.066 600.931 579.41 600.448 578.927C599.964 578.443 599.309 578.172 598.625 578.172H598.496C596.292 578.146 594.145 577.47 592.325 576.227C590.505 574.984 589.093 573.23 588.267 571.187C587.441 569.143 587.238 566.901 587.684 564.743C588.129 562.584 589.203 560.605 590.771 559.056C592.338 557.506 594.329 556.455 596.492 556.034C598.656 555.614 600.896 555.842 602.93 556.691C604.963 557.541 606.701 558.973 607.923 560.807C609.145 562.641 609.797 564.796 609.797 567V584.188C609.797 584.871 610.068 585.527 610.552 586.011C611.035 586.494 611.691 586.766 612.375 586.766C613.059 586.766 613.714 586.494 614.198 586.011C614.681 585.527 614.953 584.871 614.953 584.188V573.016H651.047V584.188C651.047 584.871 651.318 585.527 651.802 586.011C652.285 586.494 652.941 586.766 653.625 586.766C654.309 586.766 654.964 586.494 655.448 586.011C655.931 585.527 656.203 584.871 656.203 584.188V567C656.203 564.796 656.855 562.641 658.077 560.807C659.299 558.973 661.037 557.541 663.07 556.691C665.104 555.842 667.344 555.614 669.508 556.034C671.671 556.455 673.662 557.506 675.229 559.056C676.797 560.605 677.871 562.584 678.316 564.743C678.762 566.901 678.559 569.143 677.733 571.187C676.907 573.23 675.495 574.984 673.675 576.227C671.855 577.47 669.708 578.146 667.504 578.172V578.172Z" fill="#ffaa4e"/>
<path d="M1365.95 354.887V346.938C1365.95 342.607 1364.23 338.454 1361.17 335.392C1358.11 332.33 1353.96 330.609 1349.63 330.609H1308.38C1304.04 330.609 1299.89 332.33 1296.83 335.392C1293.77 338.454 1292.05 342.607 1292.05 346.938V354.887C1288.23 355.513 1284.75 357.477 1282.24 360.429C1279.74 363.38 1278.36 367.127 1278.36 371C1278.36 374.873 1279.74 378.62 1282.24 381.571C1284.75 384.523 1288.23 386.487 1292.05 387.113V401.938C1292.05 403.533 1292.68 405.063 1293.81 406.191C1294.94 407.319 1296.47 407.953 1298.06 407.953H1359.94C1361.53 407.953 1363.06 407.319 1364.19 406.191C1365.32 405.063 1365.95 403.533 1365.95 401.938V387.113C1369.78 386.487 1373.25 384.523 1375.76 381.571C1378.26 378.62 1379.64 374.873 1379.64 371C1379.64 367.127 1378.26 363.38 1375.76 360.429C1373.25 357.477 1369.78 355.513 1365.95 354.887V354.887ZM1308.38 335.766H1349.63C1352.58 335.777 1355.42 336.958 1357.51 339.05C1359.6 341.143 1360.79 343.978 1360.8 346.938V354.887C1356.97 355.508 1353.48 357.469 1350.96 360.42C1348.45 363.371 1347.06 367.12 1347.05 371V371.859H1310.95V371C1310.94 367.12 1309.55 363.371 1307.04 360.42C1304.52 357.469 1301.03 355.508 1297.2 354.887V346.938C1297.21 343.978 1298.4 341.143 1300.49 339.05C1302.58 336.958 1305.42 335.777 1308.38 335.766V335.766ZM1363.5 382.172H1363.38C1362.69 382.172 1362.04 382.443 1361.55 382.927C1361.07 383.41 1360.8 384.066 1360.8 384.75V401.938C1360.8 402.165 1360.71 402.384 1360.55 402.545C1360.38 402.706 1360.17 402.797 1359.94 402.797H1298.06C1297.83 402.797 1297.62 402.706 1297.45 402.545C1297.29 402.384 1297.2 402.165 1297.2 401.938V384.75C1297.2 384.066 1296.93 383.41 1296.45 382.927C1295.96 382.443 1295.31 382.172 1294.63 382.172H1294.5C1292.29 382.146 1290.15 381.47 1288.32 380.227C1286.5 378.984 1285.09 377.23 1284.27 375.187C1283.44 373.143 1283.24 370.901 1283.68 368.743C1284.13 366.584 1285.2 364.605 1286.77 363.056C1288.34 361.506 1290.33 360.455 1292.49 360.034C1294.66 359.614 1296.9 359.842 1298.93 360.691C1300.96 361.541 1302.7 362.973 1303.92 364.807C1305.14 366.641 1305.8 368.796 1305.8 371V388.188C1305.8 388.871 1306.07 389.527 1306.55 390.011C1307.04 390.494 1307.69 390.766 1308.38 390.766C1309.06 390.766 1309.71 390.494 1310.2 390.011C1310.68 389.527 1310.95 388.871 1310.95 388.188V377.016H1347.05V388.188C1347.05 388.871 1347.32 389.527 1347.8 390.011C1348.29 390.494 1348.94 390.766 1349.63 390.766C1350.31 390.766 1350.96 390.494 1351.45 390.011C1351.93 389.527 1352.2 388.871 1352.2 388.188V371C1352.2 368.796 1352.86 366.641 1354.08 364.807C1355.3 362.973 1357.04 361.541 1359.07 360.691C1361.1 359.842 1363.34 359.614 1365.51 360.034C1367.67 360.455 1369.66 361.506 1371.23 363.056C1372.8 364.605 1373.87 366.584 1374.32 368.743C1374.76 370.901 1374.56 373.143 1373.73 375.187C1372.91 377.23 1371.5 378.984 1369.68 380.227C1367.86 381.47 1365.71 382.146 1363.5 382.172V382.172Z" fill="#ffaa4e"/>
<path d="M1165.95 705.887V697.938C1165.95 693.607 1164.23 689.454 1161.17 686.392C1158.11 683.33 1153.96 681.609 1149.62 681.609H1108.37C1104.04 681.609 1099.89 683.33 1096.83 686.392C1093.77 689.454 1092.05 693.607 1092.05 697.938V705.887C1088.22 706.513 1084.75 708.477 1082.24 711.429C1079.74 714.38 1078.36 718.127 1078.36 722C1078.36 725.873 1079.74 729.62 1082.24 732.571C1084.75 735.523 1088.22 737.487 1092.05 738.113V752.938C1092.05 754.533 1092.68 756.063 1093.81 757.191C1094.94 758.319 1096.47 758.953 1098.06 758.953H1159.94C1161.53 758.953 1163.06 758.319 1164.19 757.191C1165.32 756.063 1165.95 754.533 1165.95 752.938V738.113C1169.77 737.487 1173.25 735.523 1175.76 732.571C1178.26 729.62 1179.64 725.873 1179.64 722C1179.64 718.127 1178.26 714.38 1175.76 711.429C1173.25 708.477 1169.77 706.513 1165.95 705.887V705.887ZM1108.37 686.766H1149.62C1152.58 686.777 1155.42 687.958 1157.51 690.05C1159.6 692.143 1160.79 694.978 1160.8 697.938V705.887C1156.97 706.508 1153.48 708.469 1150.96 711.42C1148.45 714.371 1147.06 718.12 1147.05 722V722.859H1110.95V722C1110.94 718.12 1109.55 714.371 1107.04 711.42C1104.52 708.469 1101.03 706.508 1097.2 705.887V697.938C1097.21 694.978 1098.4 692.143 1100.49 690.05C1102.58 687.958 1105.42 686.777 1108.37 686.766V686.766ZM1163.5 733.172H1163.37C1162.69 733.172 1162.04 733.443 1161.55 733.927C1161.07 734.41 1160.8 735.066 1160.8 735.75V752.938C1160.8 753.165 1160.71 753.384 1160.55 753.545C1160.38 753.706 1160.17 753.797 1159.94 753.797H1098.06C1097.83 753.797 1097.62 753.706 1097.45 753.545C1097.29 753.384 1097.2 753.165 1097.2 752.938V735.75C1097.2 735.066 1096.93 734.41 1096.45 733.927C1095.96 733.443 1095.31 733.172 1094.62 733.172H1094.5C1092.29 733.146 1090.14 732.47 1088.32 731.227C1086.5 729.984 1085.09 728.23 1084.27 726.187C1083.44 724.143 1083.24 721.901 1083.68 719.743C1084.13 717.584 1085.2 715.605 1086.77 714.056C1088.34 712.506 1090.33 711.455 1092.49 711.034C1094.66 710.614 1096.9 710.842 1098.93 711.691C1100.96 712.541 1102.7 713.973 1103.92 715.807C1105.14 717.641 1105.8 719.796 1105.8 722V739.188C1105.8 739.871 1106.07 740.527 1106.55 741.011C1107.04 741.494 1107.69 741.766 1108.37 741.766C1109.06 741.766 1109.71 741.494 1110.2 741.011C1110.68 740.527 1110.95 739.871 1110.95 739.188V728.016H1147.05V739.188C1147.05 739.871 1147.32 740.527 1147.8 741.011C1148.29 741.494 1148.94 741.766 1149.62 741.766C1150.31 741.766 1150.96 741.494 1151.45 741.011C1151.93 740.527 1152.2 739.871 1152.2 739.188V722C1152.2 719.796 1152.86 717.641 1154.08 715.807C1155.3 713.973 1157.04 712.541 1159.07 711.691C1161.1 710.842 1163.34 710.614 1165.51 711.034C1167.67 711.455 1169.66 712.506 1171.23 714.056C1172.8 715.605 1173.87 717.584 1174.32 719.743C1174.76 721.901 1174.56 724.143 1173.73 726.187C1172.91 728.23 1171.5 729.984 1169.68 731.227C1167.85 732.47 1165.71 733.146 1163.5 733.172V733.172Z" fill="#ffaa4e"/>
<path d="M935.609 396.927H912.784L922.554 387.156H916.456L906.685 396.927H906.382L896.612 387.156H890.513L900.284 396.927H877.391C876.533 396.928 875.711 397.269 875.105 397.875C874.498 398.482 874.157 399.304 874.156 400.161V440.052C874.157 440.909 874.498 441.731 875.105 442.338C875.711 442.944 876.533 443.285 877.391 443.286H892.484V451.844H922.672V443.286H935.609C936.467 443.285 937.289 442.944 937.895 442.338C938.502 441.731 938.843 440.909 938.844 440.052V400.161C938.843 399.304 938.502 398.482 937.895 397.875C937.289 397.269 936.467 396.928 935.609 396.927V396.927ZM918.359 447.531H896.797V443.286H918.359V447.531ZM934.531 438.974H878.469V401.239H934.531V438.974Z" fill="#ffaa4e"/>
</svg>
